OpenSim_Sub08_EMGBaseline_GRF.mot
version=1
nRows=23
nColumns=19
inDegrees=no
endheader
time	lFx	lFy	lFz	lCOPx	lCOPy	lCOPz	rFx	rFy	rFz	rCOPx	rCOPy	rCOPz	lMx	lMy	lMz	rMx	rMy	rMz
33.27000000	-0.59726226	500.98267129	41.52715345	0.71122629	0	-0.63096651	0.08169472	-0.14826422	0.01127580	-0.00000003	0	0.00000003	0	0.16743687	0	0	-0.00000005	-0.00000000
33.28000000	1.50667398	506.47276310	41.38511209	0.70482497	0	-0.63085633	0.02993356	-0.14913019	0.04517660	-0.00000005	0	0.00000004	0	0.18862899	0	0	0.00000005	0.00000000
33.29000000	3.52831351	512.02485268	41.39539341	0.69834220	0	-0.63069327	-0.02893177	-0.11642619	0.09808745	-0.00000003	0	0.00000003	0	0.20504639	0	0	0.00000006	-0.00000000
33.30000000	5.49139314	517.15525076	41.64564337	0.69185928	0	-0.63052035	-0.08298817	0.00391248	0.13145985	-0.00000003	0	0.00000002	0	0.15732781	0	0	0.00000005	0.00000000
33.31000000	7.43554502	521.75608721	42.10158646	0.68548282	0	-0.63038340	-0.12473480	0.19354801	0.18044441	-0.00000005	0	0.00000002	0	0.03389358	0	0	0.00000004	0.00000000
33.32000000	9.34958025	526.10035053	42.64467875	0.67916601	0	-0.63027170	-0.14187014	0.35848150	0.17402196	-0.00000010	0	0.00000004	0	-0.10685004	0	0	0.00000003	0.00000000
33.33000000	11.18931256	530.67810405	43.12993962	0.67290003	0	-0.63015577	-0.13963925	0.52790625	0.17960984	-0.00000011	0	0.00000005	0	-0.21024238	0	0	-0.00000005	-0.00000000
33.34000000	13.11404496	535.87966046	43.36096714	0.66654273	0	-0.63000699	-0.15827981	0.65533361	0.27047321	0.00000004	0	-0.00000001	0	-0.22822196	0	0	-0.00000026	0.00000000
33.35000000	15.26761595	541.87315426	43.35449523	0.66012185	0	-0.62979609	-0.18396426	0.63323940	0.33490732	0.00000052	0	-0.00000024	0	-0.12987377	0	0	-0.00000059	-0.00000000
33.36000000	17.64636805	548.31566607	43.39563142	0.65375685	0	-0.62952526	-0.21020649	0.50364772	0.38988801	0.00000146	0	-0.00000067	0	0.02026257	0	0	-0.00000084	-0.00000000
33.37000000	20.07420537	554.60291093	43.72083206	0.64756308	0	-0.62923200	-0.25220257	0.32114493	0.44318883	0.00000249	0	-0.00000116	0	0.11605930	0	0	-0.00000033	-0.00000000
33.38000000	22.46843490	559.94882355	44.34529111	0.64149316	0	-0.62893001	-0.27398398	0.20736692	0.38778927	0.00000209	0	-0.00000100	0	0.12416905	0	0	0.00000219	-0.00000000
33.39000000	24.99348466	563.63865485	45.01899783	0.63544508	0	-0.62866486	-0.21940082	0.24129242	0.34565363	-0.00000307	0	0.00000134	0	0.07515074	0	0	0.00000793	0.00000000
33.40000000	27.72567238	565.38008925	45.38005941	0.62940414	0	-0.62849486	-0.16454983	0.41059474	0.40922809	-0.00001729	0	0.00000789	0	0.04011543	0	0	0.00001598	0.00000000
33.41000000	30.56607541	565.38757722	45.19649964	0.62339123	0	-0.62839330	-0.13163449	0.62902014	0.40209598	-0.00004126	0	0.00001905	0	0.10759469	0	0	0.00001880	-0.00000000
33.42000000	33.32831835	563.93792530	44.49647861	0.61733273	0	-0.62827880	-0.11000899	0.67496338	0.40366810	-0.00006065	0	0.00002834	0	0.30522957	0	0	-0.00000309	-0.00000000
33.43000000	36.04823253	561.02571245	43.40578422	0.61110483	0	-0.62809863	-0.10073736	0.58625454	0.49981333	-0.00002906	0	0.00001446	0	0.59153913	0	0	-0.00008073	0.00000000
33.44000000	38.81826141	556.39938068	42.02683425	0.60469499	0	-0.62787170	-0.07672291	0.49141314	0.49860086	0.00014109	0	-0.00006322	0	0.92011629	0	0	-0.00023523	-0.00000000
33.45000000	41.67156286	549.81825259	40.49284904	0.59834302	0	-0.62763533	-0.03922985	0.49053307	0.40808790	0.00054176	0	-0.00024824	0	1.23277316	0	0	-0.00041339	0.00000000
33.46000000	44.50508636	540.94897462	38.83121277	0.59215912	0	-0.62739787	-0.00438476	0.52738407	0.36194058	0.00112217	0	-0.00051958	0	1.52477863	0	0	-0.00037255	0.00000000
33.47000000	47.29900789	529.48714727	36.97320094	0.58598424	0	-0.62715946	0.01799265	0.55556802	0.33264637	0.00137828	0	-0.00064805	0	1.81080076	0	0	0.00042794	0.00000000
33.48000000	49.98791307	515.38656000	34.88484950	0.57964877	0	-0.62693532	-0.00685967	0.41510276	0.31395083	-0.00003916	0	-0.00001210	0	2.08472674	0	0	0.00272168	-0.00000000
33.49000000	52.42041348	498.75189195	32.61446862	0.57312683	0	-0.62671929	-0.11483640	-0.01756508	0.34407035	-0.00534607	0	0.00242033	0	2.33985112	0	0	0.00670254	-0.00000000
